<svg width="27" height="30" viewBox="0 0 27 30" fill="none" xmlns="http://www.w3.org/2000/svg">
<path d="M10.75 7.5C12.8225 7.5 14.5 5.82255 14.5 3.75C14.5 1.67746 12.8225 0 10.75 0C8.67746 0 7 1.67746 7 3.75C7 5.82255 8.67746 7.5 10.75 7.5ZM10.75 2.14286C11.6373 2.14286 12.3571 2.86272 12.3571 3.75C12.3571 4.63728 11.6373 5.35714 10.75 5.35714C9.86272 5.35714 9.14286 4.63728 9.14286 3.75C9.14286 2.86272 9.86272 2.14286 10.75 2.14286ZM18.25 9.64286C16.1775 9.64286 14.5 11.3203 14.5 13.3929C14.5 15.4654 16.1775 17.1429 18.25 17.1429C20.3225 17.1429 22 15.4654 22 13.3929C22 11.3203 20.3225 9.64286 18.25 9.64286ZM18.25 15C17.3627 15 16.6429 14.2801 16.6429 13.3929C16.6429 12.5056 17.3627 11.7857 18.25 11.7857C19.1373 11.7857 19.8571 12.5056 19.8571 13.3929C19.8571 14.2801 19.1373 15 18.25 15ZM20.135 0.00669643L21.1931 0.00334821C21.8426 0 22.2277 0.733259 21.8527 1.26897L9.59152 16.7946C9.51759 16.9001 9.41936 16.9862 9.30513 17.0456C9.1909 17.105 9.06404 17.1361 8.93527 17.1362L7.81696 17.1395C7.16406 17.1395 6.78237 16.4063 7.15737 15.8739L19.4788 0.348214C19.6295 0.133929 19.8739 0.00669643 20.135 0.00669643Z" fill="#428DC5"/>
<path d="M0.71 19.88H3.94C4.72667 19.88 5.33667 20.07 5.77 20.45C6.21 20.83 6.43 21.3467 6.43 22C6.43 22.6467 6.21 23.1633 5.77 23.55C5.33 23.93 4.72 24.12 3.94 24.12H2.27V27H0.71V19.88ZM3.74 22.93C4.55333 22.93 4.96 22.6233 4.96 22.01C4.96 21.39 4.55333 21.08 3.74 21.08H2.27V22.93H3.74ZM13.148 27.09C12.608 27.09 12.088 27.02 11.588 26.88C11.0947 26.7333 10.6847 26.53 10.358 26.27L10.858 25.15C11.5447 25.63 12.3114 25.87 13.158 25.87C13.6114 25.87 13.958 25.8 14.198 25.66C14.4447 25.5133 14.568 25.31 14.568 25.05C14.568 24.8233 14.4547 24.6467 14.228 24.52C14.008 24.3867 13.618 24.26 13.058 24.14C12.4314 24.0133 11.9314 23.86 11.558 23.68C11.1914 23.4933 10.9214 23.27 10.748 23.01C10.5814 22.7433 10.498 22.4133 10.498 22.02C10.498 21.5933 10.6147 21.21 10.848 20.87C11.088 20.53 11.4214 20.2667 11.848 20.08C12.2747 19.8867 12.768 19.79 13.328 19.79C13.8347 19.79 14.3214 19.8633 14.788 20.01C15.2547 20.1567 15.628 20.3567 15.908 20.61L15.408 21.73C14.7814 21.25 14.0914 21.01 13.338 21.01C12.938 21.01 12.618 21.09 12.378 21.25C12.138 21.41 12.018 21.6267 12.018 21.9C12.018 22.06 12.0614 22.1933 12.148 22.3C12.2414 22.4067 12.3947 22.5033 12.608 22.59C12.8214 22.67 13.1247 22.75 13.518 22.83C14.4314 23.03 15.088 23.29 15.488 23.61C15.8947 23.93 16.098 24.3667 16.098 24.92C16.098 25.5867 15.838 26.1167 15.318 26.51C14.798 26.8967 14.0747 27.09 13.148 27.09ZM23.7703 27.09C23.0503 27.09 22.4203 26.94 21.8803 26.64C21.347 26.3333 20.937 25.9067 20.6503 25.36C20.3636 24.8067 20.2203 24.1633 20.2203 23.43C20.2203 22.7033 20.3636 22.0667 20.6503 21.52C20.937 20.9667 21.347 20.54 21.8803 20.24C22.4203 19.94 23.0503 19.79 23.7703 19.79C24.2436 19.79 24.6936 19.8633 25.1203 20.01C25.5536 20.15 25.907 20.35 26.1803 20.61L25.6903 21.73C25.3703 21.49 25.057 21.3167 24.7503 21.21C24.4503 21.0967 24.1336 21.04 23.8003 21.04C23.1603 21.04 22.6703 21.2433 22.3303 21.65C21.9903 22.0567 21.8203 22.65 21.8203 23.43C21.8203 24.2167 21.9903 24.8167 22.3303 25.23C22.6703 25.6367 23.1603 25.84 23.8003 25.84C24.1336 25.84 24.4503 25.7867 24.7503 25.68C25.057 25.5667 25.3703 25.39 25.6903 25.15L26.1803 26.27C25.907 26.53 25.5536 26.7333 25.1203 26.88C24.6936 27.02 24.2436 27.09 23.7703 27.09Z" fill="#428DC5"/>
</svg>
